# xmcd
#
# Track frame offsets: 
#        183
#        12790
#        25503
#        39053
#        48228
#        60113
#        70190
#        81438
#        95453
#        110000
#        131555
#        145458
#        157875
#        168803
#        184880
#        199895
#        214638
#        227108
#
# Disc length: 3200 seconds
#
# Revision: 0
# Processed by: cddbd v1.5.2PL0 Copyright (c) Steve Scherf et al.
# Submitted via: ExactAudioCopyFreeDBPlugin 1.0
#
DISCID=e40c7e12
DTITLE=Joe Tex - Stoned Soul Country
DYEAR=1989
DGENRE=Soul
TTITLE0=Just Out Of Reach
TTITLE1=Detroit City
TTITLE2=Set Me Free
TTITLE3=Heartbreak Hotel
TTITLE4=Together Again
TTITLE5=King Of The Road
TTITLE6=At The Dark End Of The Street
TTITLE7=I'll Never Do You Wrong
TTITLE8=Funny How Time Slips Away
TTITLE9=Ode To Billy Joe
TTITLE10=Release Me
TTITLE11=Skip A Rope
TTITLE12=Engine Engine No.9
TTITLE13=Honey
TTITLE14=By The Time I GetTo Phoenix
TTITLE15=Green Green Grass Of Home
TTITLE16=Make The World Go Away
TTITLE17=Papa's Dream
EXTD=
EXTT0=
EXTT1=
EXTT2=
EXTT3=
EXTT4=
EXTT5=
EXTT6=
EXTT7=
EXTT8=
EXTT9=
EXTT10=
EXTT11=
EXTT12=
EXTT13=
EXTT14=
EXTT15=
EXTT16=
EXTT17=
PLAYORDER=
